<?xml version="1.0" standalone="no"?>
<!DOCTYPE svg PUBLIC "-//W3C//DTD SVG 20010904//EN"
 "http://www.w3.org/TR/2001/REC-SVG-20010904/DTD/svg10.dtd">
<svg version="1.0" xmlns="http://www.w3.org/2000/svg"
 width="500.000000pt" height="500.000000pt" viewBox="0 0 500.000000 500.000000"
 preserveAspectRatio="xMidYMid meet">
<metadata>
Created by potrace 1.14, written by Peter Selinger 2001-2017
</metadata>
<g transform="translate(0.000000,500.000000) scale(0.100000,-0.100000)"
fill="#000000" stroke="none">
<path d="M2300 4727 c0 -6 -3 -7 -6 -4 -7 6 -63 -29 -76 -47 -4 -6 -16 -6 -33
2 -32 15 -82 16 -87 1 -2 -5 -34 -11 -71 -12 -54 -2 -71 -6 -78 -20 -6 -9 -14
-15 -19 -12 -4 3 -11 -3 -14 -12 -6 -14 -9 -15 -15 -4 -15 24 -92 17 -136 -13
-24 -17 -49 -26 -62 -23 -13 2 -23 0 -23 -5 0 -6 -7 -8 -15 -4 -17 6 -95 -67
-95 -89 0 -16 -27 -26 -56 -21 -26 5 -88 -30 -79 -44 4 -6 3 -10 -2 -9 -4 1
-10 1 -13 -1 -3 -1 -16 -3 -28 -6 -13 -2 -32 -14 -41 -26 -12 -14 -31 -22 -59
-24 -56 -4 -100 -47 -109 -106 -2 -18 -15 -49 -29 -69 -13 -19 -24 -48 -24
-63 0 -37 -29 -71 -60 -70 -14 0 -36 -6 -50 -14 -32 -19 -70 -58 -63 -65 10
-11 -25 -37 -50 -37 -34 0 -74 -41 -87 -89 -6 -22 -15 -41 -19 -41 -7 0 -35
-55 -36 -70 0 -3 -4 -11 -8 -17 -5 -7 -4 -13 1 -13 4 0 8 -17 8 -38 -1 -29 -8
-45 -29 -63 -15 -13 -29 -35 -30 -48 -1 -14 -9 -26 -19 -29 -10 -2 -15 -8 -12
-13 3 -5 1 -9 -4 -9 -23 0 -48 -65 -45 -120 1 -30 -3 -60 -9 -67 -6 -7 -8 -13
-5 -13 4 0 3 -10 -2 -22 -4 -13 -4 -38 1 -56 8 -29 6 -35 -16 -53 -14 -11 -26
-29 -26 -40 0 -10 -4 -19 -8 -19 -12 0 -9 -94 3 -102 6 -5 5 -8 -3 -8 -7 0
-11 -4 -8 -9 3 -5 -1 -11 -9 -15 -8 -3 -15 -14 -15 -24 0 -10 -3 -22 -7 -25
-11 -12 -12 -57 -1 -57 6 0 9 -3 5 -6 -3 -4 1 -20 9 -36 23 -44 22 -102 -1
-128 -11 -12 -20 -31 -22 -43 -1 -12 -4 -37 -6 -54 -3 -18 -1 -33 3 -33 4 0 6
-11 5 -25 -2 -14 1 -25 6 -25 5 0 9 -7 9 -15 0 -8 5 -15 10 -15 6 0 10 -7 10
-15 0 -8 5 -15 10 -15 6 0 8 -15 6 -34 -4 -35 24 -96 44 -96 7 0 9 -13 6 -32
-2 -18 -5 -33 -6 -33 -1 0 -3 -17 -4 -37 -1 -21 2 -38 7 -38 4 0 5 -4 2 -10
-9 -14 45 -90 64 -90 25 -1 51 -25 51 -49 0 -11 4 -21 10 -21 5 0 7 -6 4 -14
-3 -8 10 -30 30 -49 20 -20 31 -39 26 -42 -23 -14 -4 -145 22 -145 4 0 8 -7 8
-15 0 -8 3 -14 8 -13 19 6 52 -24 52 -47 0 -26 65 -99 79 -90 5 2 11 -13 15
-35 3 -22 11 -40 18 -40 6 0 9 -3 5 -6 -9 -9 57 -71 71 -66 6 2 12 -1 12 -8 0
-6 4 -9 10 -5 12 7 50 -16 50 -31 0 -11 71 -38 103 -39 9 0 25 -16 36 -35 19
-36 76 -66 96 -50 24 19 83 -1 123 -41 36 -35 46 -40 81 -37 23 1 49 9 59 17
19 18 52 24 52 10 0 -5 10 -8 23 -5 13 2 33 -4 46 -15 13 -10 19 -19 15 -19
-5 -1 2 -10 15 -20 13 -11 21 -20 18 -20 -3 0 9 -15 26 -33 18 -18 35 -31 40
-29 4 2 7 -4 7 -12 0 -9 5 -16 10 -16 6 0 21 -9 33 -20 54 -49 80 -70 87 -70
4 0 20 -11 36 -25 41 -36 47 -40 68 -48 24 -9 16 -17 -20 -22 -28 -4 -64 -10
-113 -20 -31 -6 -132 -34 -151 -42 -8 -3 -18 -5 -22 -5 -5 1 -8 -3 -8 -9 0 -5
-4 -7 -10 -4 -25 15 -104 -108 -83 -129 8 -7 11 -75 4 -74 -8 2 -64 -13 -76
-21 -11 -6 -32 -12 -52 -13 -7 -1 -13 -5 -13 -10 0 -4 -6 -8 -13 -8 -7 0 -23
-9 -35 -20 -12 -12 -22 -17 -22 -13 0 4 -13 -7 -29 -26 l-29 -34 36 -18 c88
-42 154 -69 167 -69 7 0 16 -4 19 -9 3 -5 22 -12 41 -15 19 -4 35 -11 35 -17
0 -6 5 -7 10 -4 6 4 17 1 25 -5 8 -6 19 -9 25 -5 5 3 10 2 10 -3 0 -5 6 -9 13
-9 6 0 32 -6 57 -14 25 -7 53 -13 63 -12 9 0 17 -3 17 -7 0 -4 10 -8 23 -8 27
0 97 -11 117 -19 16 -5 72 -11 150 -15 25 -2 50 -6 55 -9 6 -3 69 -4 140 -2
189 4 282 12 395 33 30 6 66 12 80 14 14 2 26 5 28 6 1 1 10 3 20 4 9 1 22 4
27 7 6 4 29 10 53 14 23 4 42 11 42 16 0 4 7 6 15 3 8 -4 21 -2 28 4 6 5 30
15 52 22 22 6 55 18 73 26 18 8 37 12 44 8 7 -4 8 -3 4 4 -5 8 0 12 13 12 11
0 27 8 37 17 10 10 18 16 18 13 1 -7 96 34 96 42 0 16 -66 70 -112 92 -26 12
-44 18 -41 12 4 -6 -1 -5 -11 3 -9 8 -33 17 -54 20 l-36 6 1 73 c1 70 0 74
-33 107 -19 19 -38 34 -42 33 -4 -1 -17 3 -29 10 -12 7 -26 11 -30 10 -4 -1
-18 3 -30 10 -22 12 -64 22 -110 25 -13 1 -23 5 -23 9 0 4 -8 6 -17 6 -10 -1
-31 2 -48 7 -16 4 -39 7 -50 6 -16 -3 -17 -1 -6 13 7 9 19 16 26 16 7 0 16 7
19 16 3 8 10 12 16 9 6 -3 13 1 16 9 3 9 11 16 16 16 6 0 27 15 48 33 83 71
133 112 141 115 5 2 9 8 9 12 0 14 46 60 59 60 7 0 10 4 7 8 -3 5 5 8 17 6 12
-1 32 5 45 12 12 8 22 11 22 7 0 -5 4 -2 9 6 10 16 41 24 41 11 0 -12 94 -4
98 8 2 6 10 8 18 5 8 -3 14 0 14 5 0 21 31 42 48 33 14 -8 39 -3 92 16 8 3 21
7 28 9 27 5 63 36 73 62 8 21 12 23 19 12 9 -13 10 -13 10 0 0 10 3 11 8 4 13
-21 77 13 98 52 17 31 26 38 47 35 4 0 7 4 7 10 0 5 5 7 10 4 6 -3 10 -1 10 6
0 7 3 10 6 7 9 -9 54 38 54 56 0 10 4 15 8 12 4 -2 9 4 9 15 1 11 16 36 32 55
17 19 31 44 31 55 0 11 4 18 9 14 21 -12 122 58 106 74 -3 2 0 10 6 17 6 8 9
21 5 29 -3 8 -1 15 4 15 6 0 6 9 0 24 -5 13 -6 27 -3 30 4 3 1 6 -6 6 -7 0 -3
9 9 22 19 21 23 32 23 70 0 10 6 18 13 18 8 0 14 5 14 11 0 5 5 7 10 4 6 -3
10 -1 10 6 0 7 3 9 7 6 3 -4 17 9 30 28 13 19 29 35 35 35 16 0 59 50 53 61
-4 5 -2 9 2 9 14 0 15 68 3 106 -9 26 -8 39 4 63 9 16 16 46 16 66 0 19 4 35
8 35 13 0 32 47 32 76 0 17 4 23 13 18 7 -5 7 -1 -2 10 -13 15 -12 21 1 44 9
15 17 30 17 35 1 4 2 8 2 10 7 12 4 127 -3 127 -5 0 -7 4 -4 8 3 5 -6 20 -19
34 -17 19 -21 28 -12 37 12 12 18 35 16 71 0 14 -1 41 -2 60 -1 37 4 62 14 70
8 6 -18 112 -29 120 -21 14 -42 57 -42 85 0 17 -7 41 -16 54 -10 14 -18 48
-19 85 -1 33 -7 73 -13 87 -14 36 -59 79 -93 91 -18 6 -26 15 -22 24 3 8 0 14
-7 14 -6 0 -9 4 -5 10 3 5 -4 19 -15 30 -16 16 -20 30 -16 58 2 21 -3 56 -11
77 -9 22 -16 58 -18 80 -2 51 -15 95 -26 95 -5 0 -9 6 -9 13 0 13 -62 46 -95
51 -11 2 -21 12 -23 23 -4 24 -63 91 -77 87 -16 -6 -38 12 -39 32 -4 67 -70
127 -139 128 -32 0 -47 7 -68 28 -14 16 -33 28 -42 28 -10 0 -20 12 -23 28 -9
35 -60 82 -89 82 -12 0 -28 7 -35 15 -45 55 -116 74 -177 49 -18 -7 -33 -9
-33 -4 0 14 -66 50 -92 50 -26 0 -53 22 -41 33 3 4 1 7 -6 7 -7 0 -9 5 -6 10
3 6 0 10 -8 10 -8 0 -17 7 -20 14 -3 8 -23 18 -44 22 -21 4 -42 10 -48 14 -5
4 -20 6 -32 5 -13 -1 -23 1 -23 5 0 4 -6 7 -12 8 -62 5 -128 16 -128 21 0 9
-54 5 -73 -5 -20 -12 -115 -2 -125 12 -11 15 -142 15 -172 0 -17 -8 -33 -10
-43 -4 -24 13 -77 17 -77 5z"/>
</g>
</svg>
